<?xml version="1.0" encoding="utf-8"?>
<!-- Generator: Adobe Illustrator 27.5.0, SVG Export Plug-In . SVG Version: 6.00 Build 0)  -->
<svg version="1.1" xmlns="http://www.w3.org/2000/svg" xmlns:xlink="http://www.w3.org/1999/xlink" x="0px" y="0px"
	 viewBox="0 0 500 500" style="enable-background:new 0 0 500 500;" xml:space="preserve">
<g id="BACKGROUND">
	<rect style="fill:#C7E3F9;" width="500" height="500"/>
</g>
<g id="OBJECTS">
	<g>
		<g>
			<g>
				<path style="fill:#5F99B2;" d="M330.831,223.419c-7.628,0-13.812,6.184-13.812,13.812s6.184,13.812,13.812,13.812
					s13.812-6.184,13.812-13.812S338.459,223.419,330.831,223.419z M330.831,245.564c-4.602,0-8.333-3.731-8.333-8.333
					s3.731-8.333,8.333-8.333c4.602,0,8.333,3.731,8.333,8.333S335.433,245.564,330.831,245.564z"/>
				<rect x="328.691" y="219.291" style="fill:#5F99B2;" width="5.351" height="7.237"/>
				
					<rect x="313.664" y="232.95" transform="matrix(4.452800e-11 -1 1 4.452800e-11 79.7717 552.9083)" style="fill:#5F99B2;" width="5.351" height="7.237"/>
				
					<rect x="342.409" y="233.612" transform="matrix(4.486817e-11 -1 1 4.486817e-11 107.8539 582.3156)" style="fill:#5F99B2;" width="5.351" height="7.237"/>
				
					<rect x="338.17" y="222.909" transform="matrix(0.6793 0.7338 -0.7338 0.6793 275.5295 -177.4828)" style="fill:#5F99B2;" width="5.351" height="7.237"/>
				
					<rect x="318.443" y="222.4" transform="matrix(-0.6793 0.7338 -0.7338 -0.6793 705.1251 143.915)" style="fill:#5F99B2;" width="5.351" height="7.237"/>
				<rect x="328.54" y="248.227" style="fill:#5F99B2;" width="5.351" height="7.237"/>
				
					<rect x="338.969" y="243.583" transform="matrix(0.6793 -0.7338 0.7338 0.6793 -71.85 329.9767)" style="fill:#5F99B2;" width="5.351" height="7.237"/>
				
					<rect x="317.637" y="244.411" transform="matrix(-0.6793 -0.7338 0.7338 -0.6793 355.9022 651.5791)" style="fill:#5F99B2;" width="5.351" height="7.237"/>
			</g>
			<g>
				<path style="fill:#5F99B2;" d="M71.321,312.778c-7.628,0-13.812,6.184-13.812,13.812s6.184,13.812,13.812,13.812
					s13.812-6.184,13.812-13.812S78.949,312.778,71.321,312.778z M71.321,334.923c-4.602,0-8.333-3.731-8.333-8.333
					c0-4.602,3.731-8.333,8.333-8.333c4.602,0,8.333,3.731,8.333,8.333C79.654,331.192,75.923,334.923,71.321,334.923z"/>
				<rect x="69.18" y="308.65" style="fill:#5F99B2;" width="5.351" height="7.237"/>
				
					<rect x="54.154" y="322.309" transform="matrix(4.452800e-11 -1 1 4.452800e-11 -269.0975 382.757)" style="fill:#5F99B2;" width="5.351" height="7.237"/>
				
					<rect x="82.899" y="322.971" transform="matrix(4.486817e-11 -1 1 4.486817e-11 -241.0154 412.1642)" style="fill:#5F99B2;" width="5.351" height="7.237"/>
				
					<rect x="78.66" y="312.268" transform="matrix(0.6793 0.7338 -0.7338 0.6793 257.8879 41.6071)" style="fill:#5F99B2;" width="5.351" height="7.237"/>
				
					<rect x="58.933" y="311.759" transform="matrix(-0.6793 0.7338 -0.7338 -0.6793 334.894 484.4145)" style="fill:#5F99B2;" width="5.351" height="7.237"/>
				<rect x="69.029" y="337.586" style="fill:#5F99B2;" width="5.351" height="7.237"/>
				
					<rect x="79.459" y="332.942" transform="matrix(0.6793 -0.7338 0.7338 0.6793 -220.6396 168.1951)" style="fill:#5F99B2;" width="5.351" height="7.237"/>
				
					<rect x="58.127" y="333.77" transform="matrix(-0.6793 -0.7338 0.7338 -0.6793 -145.4769 611.207)" style="fill:#5F99B2;" width="5.351" height="7.237"/>
			</g>
			<g>
				<path style="fill:#5F99B2;" d="M438.642,302.89c-5.957,0-10.786,4.829-10.786,10.786s4.829,10.786,10.786,10.786
					s10.786-4.829,10.786-10.786S444.599,302.89,438.642,302.89z M438.642,320.184c-3.594,0-6.507-2.913-6.507-6.507
					s2.913-6.507,6.507-6.507c3.594,0,6.507,2.913,6.507,6.507S442.236,320.184,438.642,320.184z"/>
				<rect x="436.971" y="299.667" style="fill:#5F99B2;" width="4.179" height="5.652"/>
				
					<rect x="425.236" y="310.333" transform="matrix(4.439655e-11 -1 1 4.439655e-11 114.1667 740.4847)" style="fill:#5F99B2;" width="4.179" height="5.652"/>
				
					<rect x="447.684" y="310.851" transform="matrix(4.483176e-11 -1 1 4.483176e-11 136.0968 763.4496)" style="fill:#5F99B2;" width="4.179" height="5.652"/>
				
					<rect x="444.374" y="302.492" transform="matrix(0.6793 0.7338 -0.7338 0.6793 367.2155 -229.7222)" style="fill:#5F99B2;" width="4.179" height="5.652"/>
				
					<rect x="428.968" y="302.094" transform="matrix(-0.6793 0.7338 -0.7338 -0.6793 947.6495 195.7418)" style="fill:#5F99B2;" width="4.179" height="5.652"/>
				<rect x="436.853" y="322.264" style="fill:#5F99B2;" width="4.179" height="5.652"/>
				
					<rect x="444.997" y="318.637" transform="matrix(0.6793 -0.7338 0.7338 0.6793 -92.5335 431.1658)" style="fill:#5F99B2;" width="4.179" height="5.652"/>
				
					<rect x="428.339" y="319.283" transform="matrix(-0.6793 -0.7338 0.7338 -0.6793 486.461 856.7897)" style="fill:#5F99B2;" width="4.179" height="5.652"/>
			</g>
			<g>
				<path style="fill:#5F99B2;" d="M360.53,77.01c-5.957,0-10.786,4.829-10.786,10.786s4.829,10.786,10.786,10.786
					s10.786-4.829,10.786-10.786S366.487,77.01,360.53,77.01z M360.53,94.303c-3.594,0-6.507-2.913-6.507-6.507
					c0-3.594,2.913-6.507,6.507-6.507s6.507,2.913,6.507,6.507C367.038,91.39,364.124,94.303,360.53,94.303z"/>
				<rect x="358.859" y="73.786" style="fill:#5F99B2;" width="4.179" height="5.652"/>
				
					<rect x="347.124" y="84.452" transform="matrix(4.439655e-11 -1 1 4.439655e-11 261.9354 436.4919)" style="fill:#5F99B2;" width="4.179" height="5.652"/>
				
					<rect x="369.572" y="84.97" transform="matrix(4.483176e-11 -1 1 4.483176e-11 283.8655 459.4568)" style="fill:#5F99B2;" width="4.179" height="5.652"/>
				
					<rect x="366.262" y="76.612" transform="matrix(0.6793 0.7338 -0.7338 0.6793 176.4103 -244.8333)" style="fill:#5F99B2;" width="4.179" height="5.652"/>
				
					<rect x="350.856" y="76.214" transform="matrix(-0.6793 0.7338 -0.7338 -0.6793 650.7157 -126.2672)" style="fill:#5F99B2;" width="4.179" height="5.652"/>
				<rect x="358.741" y="96.383" style="fill:#5F99B2;" width="4.179" height="5.652"/>
				
					<rect x="366.885" y="92.756" transform="matrix(0.6793 -0.7338 0.7338 0.6793 48.1763 301.4133)" style="fill:#5F99B2;" width="4.179" height="5.652"/>
				
					<rect x="350.227" y="93.403" transform="matrix(-0.6793 -0.7338 0.7338 -0.6793 521.0421 420.1392)" style="fill:#5F99B2;" width="4.179" height="5.652"/>
			</g>
			<g>
				<path style="fill:#5F99B2;" d="M81.144,67.705c-5.957,0-10.786,4.829-10.786,10.786s4.829,10.786,10.786,10.786
					S91.93,84.448,91.93,78.491S87.101,67.705,81.144,67.705z M81.144,84.998c-3.594,0-6.507-2.913-6.507-6.507
					s2.913-6.507,6.507-6.507c3.594,0,6.507,2.913,6.507,6.507S84.738,84.998,81.144,84.998z"/>
				<rect x="79.473" y="64.481" style="fill:#5F99B2;" width="4.179" height="5.652"/>
				
					<rect x="67.738" y="75.148" transform="matrix(4.439655e-11 -1 1 4.439655e-11 -8.146 147.801)" style="fill:#5F99B2;" width="4.179" height="5.652"/>
				
					<rect x="90.186" y="75.665" transform="matrix(4.483176e-11 -1 1 4.483176e-11 13.7841 170.766)" style="fill:#5F99B2;" width="4.179" height="5.652"/>
				
					<rect x="86.875" y="67.307" transform="matrix(0.6793 0.7338 -0.7338 0.6793 79.9932 -42.7959)" style="fill:#5F99B2;" width="4.179" height="5.652"/>
				
					<rect x="71.47" y="66.909" transform="matrix(-0.6793 0.7338 -0.7338 -0.6793 174.7044 63.1282)" style="fill:#5F99B2;" width="4.179" height="5.652"/>
				<rect x="79.354" y="87.078" style="fill:#5F99B2;" width="4.179" height="5.652"/>
				
					<rect x="87.499" y="83.451" transform="matrix(0.6793 -0.7338 0.7338 0.6793 -34.5847 93.4085)" style="fill:#5F99B2;" width="4.179" height="5.652"/>
				
					<rect x="70.84" y="84.098" transform="matrix(-0.6793 -0.7338 0.7338 -0.6793 58.6869 199.4923)" style="fill:#5F99B2;" width="4.179" height="5.652"/>
			</g>
		</g>
		<g>
			<path style="fill:#7FBDD3;" d="M408.325,351.397c0,0-12.954,0.141-19.555,9.658c-6.601,9.518-6.368,24.819-0.412,34.953
				c5.956,10.135,19.059-2.814,19.059-2.814L408.325,351.397"/>
			<path style="fill:#71A8C6;" d="M408.325,351.397c0,0-14.482,6.681-15.688,23.78c-1.206,17.099,7.248,23.32,7.248,23.32
				s6.734,2.618,7.339-0.445C407.829,394.99,400.72,380.63,408.325,351.397"/>
			<path style="fill:#7FBDD3;" d="M411.196,351.397c0,0,12.954,0.141,19.555,9.658c6.601,9.518,6.368,24.819,0.412,34.953
				c-5.956,10.135-19.059-2.814-19.059-2.814L411.196,351.397"/>
			<path style="fill:#71A8C6;" d="M411.196,351.397c0,0,14.482,6.681,15.688,23.78c1.206,17.099-7.248,23.32-7.248,23.32
				s-6.734,2.618-7.339-0.445C411.692,394.99,418.801,380.63,411.196,351.397"/>
			<path style="fill:#7FBDD3;" d="M405.643,398.351c0,0-7.671-16.227-2.825-32.654c4.846-16.427,5.83-14.581,7.62-14.62
				c2.617-0.057,7.822,16.407,6.956,31.656s-4.669,16.41-4.669,16.41L405.643,398.351z"/>
			<path style="fill:#FFFFFF;" d="M405.736,359.548l2.704,4.205c0.324,0.456,0.48,0.638,0.846,0.637
				c0.346-0.001,0.542-0.09,0.943-0.531l2.739-4.311l-2.999,3.504l-0.32-7.902l-0.76,7.705L405.736,359.548z"/>
			<path style="fill:#FFFFFF;" d="M405.736,372.802l2.704,4.205c0.324,0.456,0.48,0.638,0.846,0.637
				c0.346-0.001,0.542-0.09,0.943-0.531l2.739-4.311l-2.999,3.504l-0.32-7.902l-0.76,7.705L405.736,372.802z"/>
			<path style="fill:#FFFFFF;" d="M406.335,386.963l2.704,4.205c0.324,0.456,0.48,0.638,0.846,0.637
				c0.346-0.001,0.542-0.09,0.943-0.531l2.739-4.311l-2.999,3.504l-0.32-7.902l-0.76,7.705L406.335,386.963z"/>
			<path style="fill:#FFFFFF;" d="M417.609,350.101l1.796,4.653c0.225,0.511,0.341,0.72,0.699,0.791
				c0.339,0.068,0.549,0.019,1.031-0.334l3.559-3.683l-3.65,2.842l1.29-7.805l-2.308,7.4L417.609,350.101z"/>
			<path style="fill:#FFFFFF;" d="M427.458,358.168l1.796,4.653c0.225,0.511,0.341,0.72,0.699,0.791
				c0.339,0.068,0.549,0.019,1.031-0.334l3.559-3.683l-3.65,2.842l1.29-7.805l-2.308,7.4L427.458,358.168z"/>
			<path style="fill:#FFFFFF;" d="M418.932,360.418l1.796,4.653c0.225,0.511,0.341,0.72,0.699,0.791
				c0.339,0.068,0.549,0.019,1.031-0.334l3.559-3.683l-3.65,2.842l1.29-7.805l-2.308,7.4L418.932,360.418z"/>
			<path style="fill:#FFFFFF;" d="M431.596,371.435l1.796,4.653c0.225,0.511,0.341,0.72,0.699,0.791
				c0.339,0.068,0.549,0.019,1.031-0.334l3.559-3.683l-3.65,2.842l1.29-7.805l-2.308,7.4L431.596,371.435z"/>
			<path style="fill:#FFFFFF;" d="M423.627,378.189l0.994,4.881c0.136,0.54,0.216,0.765,0.557,0.894
				c0.323,0.122,0.538,0.108,1.073-0.162l4.126-3.055l-4.075,2.21l2.577-7.489l-3.513,6.923L423.627,378.189z"/>
			<path style="fill:#FFFFFF;" d="M429.873,387.212l1.796,4.653c0.225,0.511,0.341,0.72,0.699,0.791
				c0.339,0.068,0.549,0.019,1.031-0.334l3.559-3.683l-3.65,2.842l1.29-7.805l-2.308,7.4L429.873,387.212z"/>
			<path style="fill:#FFFFFF;" d="M399.036,351.366l-1.435,4.773c-0.185,0.526-0.285,0.743-0.637,0.841
				c-0.333,0.093-0.546,0.059-1.054-0.257l-3.83-3.408l3.857,2.562l-1.884-7.687l2.868,7.207L399.036,351.366z"/>
			<path style="fill:#FFFFFF;" d="M389.833,360.143l-1.435,4.773c-0.185,0.526-0.285,0.743-0.637,0.841
				c-0.333,0.093-0.546,0.059-1.054-0.257l-3.83-3.408l3.857,2.562l-1.884-7.687l2.868,7.207L389.833,360.143z"/>
			<path style="fill:#FFFFFF;" d="M399.001,364.56l-1.435,4.773c-0.185,0.526-0.285,0.743-0.637,0.841
				c-0.333,0.093-0.546,0.059-1.054-0.257l-3.83-3.408l3.857,2.562l-1.884-7.687l2.868,7.207L399.001,364.56z"/>
			<path style="fill:#FFFFFF;" d="M397.445,379.182l-1.435,4.773c-0.185,0.526-0.285,0.743-0.637,0.841
				c-0.333,0.093-0.546,0.059-1.054-0.257l-3.83-3.408l3.857,2.562l-1.884-7.687l2.868,7.207L397.445,379.182z"/>
			<path style="fill:#FFFFFF;" d="M386.722,373.68l-1.435,4.773c-0.185,0.526-0.285,0.743-0.637,0.841
				c-0.333,0.093-0.546,0.059-1.054-0.257l-3.83-3.408l3.857,2.562l-1.884-7.687l2.868,7.207L386.722,373.68z"/>
			<path style="fill:#FFFFFF;" d="M389.404,388.75l-0.627,4.94c-0.096,0.549-0.158,0.779-0.489,0.932
				c-0.313,0.145-0.529,0.146-1.082-0.084l-4.342-2.747l4.229,1.908l-3.129-7.282l4.02,6.65L389.404,388.75z"/>
			<path style="fill:#629DB7;" d="M408.016,354.433c0,0-5.112-0.392-6.78-3.759c-1.668-3.368-2.383-7.597-1.509-7.049
				c0.874,0.548,6.831,4.259,7.387,5.38c0.556,1.121,1.112-8.043,2.78-10.079c1.668-2.036,3.068,9.669,2.765,10.161
				c-0.303,0.491,4.464-5.461,6.131-6.714C420.457,341.118,418.846,354.824,408.016,354.433z"/>
		</g>
		<g>
			<g>
				<circle style="fill:#71A8C6;" cx="212.036" cy="87.24" r="32.042"/>
				<circle style="fill:#FEFFFF;" cx="212.036" cy="87.24" r="27.416"/>
			</g>
			<g>
				<g>
					<rect x="211.201" y="60.614" style="fill:#71A8C6;" width="1.67" height="6.5"/>
					<rect x="211.201" y="107.656" style="fill:#71A8C6;" width="1.67" height="5.88"/>
					
						<rect x="187.932" y="83.884" transform="matrix(3.648821e-11 -1 1 3.648821e-11 101.6913 275.8417)" style="fill:#71A8C6;" width="1.67" height="6.382"/>
					
						<rect x="234.799" y="84.212" transform="matrix(3.322060e-11 -1 1 3.322060e-11 148.5585 322.7089)" style="fill:#71A8C6;" width="1.67" height="5.727"/>
					<polygon style="fill:#71A8C6;" points="197.244,72.75 196.305,74.152 191.842,70.12 192.962,68.881 					"/>
					<polygon style="fill:#71A8C6;" points="232.23,104.359 231.111,105.598 226.965,101.853 228.204,100.722 					"/>
					<polygon style="fill:#71A8C6;" points="225.51,71.604 226.505,72.964 230.876,68.771 229.72,67.566 					"/>
					<polygon style="fill:#71A8C6;" points="191.527,104.199 192.683,105.404 197.095,101.172 195.881,100.023 					"/>
				</g>
				<g>
					
						<rect x="211.201" y="70.265" transform="matrix(-1 -1.224647e-16 1.224647e-16 -1 424.0728 158.1147)" style="fill:#71A8C6;" width="1.67" height="17.585"/>
					<rect x="211.201" y="86.24" style="fill:#71A8C6;" width="11.26" height="1.67"/>
				</g>
			</g>
		</g>
		<path style="fill:#FFFFFF;" d="M421.299,276.857l-0.025-3l6-0.049l0.025,3L421.299,276.857z M431.299,276.775l-0.025-3l6-0.05
			l0.025,3L431.299,276.775z M441.298,276.693l-0.025-3l6-0.05l0.025,3L441.298,276.693z M451.502,276.513l-0.443-2.967
			c1.633-0.244,3.116-1.081,4.179-2.358l2.307,1.919C456.01,274.95,453.863,276.16,451.502,276.513z M459.583,268.893l-2.936-0.617
			c0.096-0.453,0.144-0.921,0.144-1.39v-4.289h3v4.289C459.791,267.562,459.721,268.237,459.583,268.893z M459.791,258.597h-3v-6h3
			V258.597z M459.791,248.596h-3v-6h3V248.596z M459.791,238.596h-3v-6h3V238.596z M459.791,228.596h-3v-6h3V228.596z
			 M459.791,218.596h-3v-6h3V218.596z M459.791,208.596h-3v-6h3V208.596z M459.791,198.596h-3v-6h3V198.596z M459.791,188.596h-3v-6
			h3V188.596z M459.791,178.596h-3v-6h3V178.596z M459.791,168.596h-3v-6h3V168.596z M456.604,159
			c-0.408-1.546-1.459-2.859-2.884-3.601l1.385-2.661c2.174,1.131,3.777,3.135,4.399,5.497L456.604,159z M450.543,154.759h-6v-3h6
			V154.759z M440.543,154.759h-6v-3h6V154.759z"/>
		<rect x="16.865" y="415.579" style="fill:#3A1751;" width="466.092" height="3.818"/>
		<polygon style="fill:#FFFFFF;" points="427.75,440.179 391.417,440.179 386.849,394.798 432.417,394.798 		"/>
		<g>
			<path style="fill:#FEFFFF;" d="M171.096,121.117c0-12.99-16.906-23.52-37.762-23.52s-37.762,10.53-37.762,23.52
				c0,12.99,16.906,23.52,37.762,23.52c3.636,0,7.147-0.327,10.474-0.924l-0.032,0.01l12.692,7.745l-0.743-11.411l-0.023,0.007
				C165.037,135.782,171.096,128.892,171.096,121.117z"/>
			<g>
				<path style="fill:#62497F;" d="M116.822,134.072h33.026c1.186,0,2.147-0.961,2.147-2.147v-21.617
					c0-1.186-0.961-2.147-2.147-2.147h-33.026c-1.186,0-2.147,0.961-2.147,2.147v21.617
					C114.675,133.111,115.636,134.072,116.822,134.072z"/>
				<path style="fill:#6D598E;" d="M133.874,120.742l17.071-11.19c0.761-0.529-1.046-1.391-1.973-1.391h-31.276
					c-0.927,0-2.704,0.8-1.942,1.329l17.04,11.252C133.12,120.968,133.55,120.968,133.874,120.742z"/>
			</g>
		</g>
		<g>
			<polygon style="fill:#FFFFFF;" points="105.33,433.559 68.996,433.559 64.428,381.49 109.996,381.49 			"/>
			<path style="fill:#FFFFFF;" d="M75.867,419.549H63.974c-3.813,0-7.031-2.854-7.487-6.64l-1.22-10.129
				c-0.245-2.036,0.395-4.084,1.755-5.618c1.36-1.534,3.317-2.414,5.368-2.414h8.37v3h-8.37c-1.193,0-2.332,0.512-3.123,1.405
				c-0.792,0.893-1.164,2.084-1.021,3.268l1.22,10.129c0.274,2.28,2.213,3.999,4.509,3.999h11.893V419.549z"/>
		</g>
		<g>
			<g>
				<rect x="338.086" y="141.868" style="fill:#FEFFFF;" width="88.679" height="57.944"/>
				<g>
					<rect x="338.086" y="127.223" style="fill:#71A8C6;" width="88.679" height="14.645"/>
					<rect x="351.543" y="119.9" style="fill:#5F99B2;" width="4.298" height="14.645"/>
					<rect x="370.168" y="119.9" style="fill:#5F99B2;" width="4.298" height="14.645"/>
					<rect x="388.793" y="119.9" style="fill:#5F99B2;" width="4.298" height="14.645"/>
					<rect x="407.418" y="119.9" style="fill:#5F99B2;" width="4.298" height="14.645"/>
				</g>
			</g>
			<g>
				<rect x="346.768" y="152.3" style="fill:#B6B6EF;" width="14.884" height="14.884"/>
				<rect x="365.393" y="152.3" style="fill:#B6B6EF;" width="14.884" height="14.884"/>
				<rect x="384.017" y="152.3" style="fill:#71A8C6;" width="14.884" height="14.884"/>
				<rect x="402.642" y="152.3" style="fill:#B6B6EF;" width="14.884" height="14.884"/>
				<rect x="346.768" y="170.925" style="fill:#B6B6EF;" width="14.884" height="14.884"/>
				<rect x="365.393" y="170.925" style="fill:#B6B6EF;" width="14.884" height="14.884"/>
				<rect x="384.017" y="170.925" style="fill:#B6B6EF;" width="14.884" height="14.884"/>
				<rect x="402.642" y="170.925" style="fill:#B6B6EF;" width="14.884" height="14.884"/>
			</g>
		</g>
		<g>
			<g>
				<polyline style="fill:#472F59;" points="263.898,84.507 291.898,66.882 319.898,84.507 				"/>
				<polyline style="fill:#472F59;" points="263.898,84.507 291.898,102.132 319.898,84.507 				"/>
			</g>
			<g>
				<rect x="269.565" y="54.722" style="fill:#B6B6EF;" width="44.667" height="57.667"/>
				<g>
					<rect x="273.197" y="58.722" style="fill:#62497F;" width="16.167" height="8.833"/>
					<rect x="273.197" y="72.18" style="fill:#62497F;" width="37" height="2.096"/>
					<rect x="273.398" y="78.819" style="fill:#62497F;" width="37" height="2.096"/>
					<rect x="273.6" y="85.459" style="fill:#62497F;" width="37" height="2.096"/>
				</g>
			</g>
			<g>
				<polygon style="fill:#5C4275;" points="291.898,102.132 263.898,84.507 263.898,119.757 319.898,119.757 319.898,84.507 				"/>
				<polyline style="fill:#62497F;" points="263.898,119.757 291.898,102.132 319.898,119.757 				"/>
			</g>
		</g>
		<g>
			<path style="fill:#71A8C6;" d="M165.235,200.597c-14.494,0-26.244,11.75-26.244,26.244s11.75,26.244,26.244,26.244
				s26.244-11.75,26.244-26.244S179.73,200.597,165.235,200.597z M165.235,240.907c-7.768,0-14.065-6.297-14.065-14.065
				s6.297-14.065,14.065-14.065s14.065,6.297,14.065,14.065S173.003,240.907,165.235,240.907z"/>
			<path style="fill:#62497F;" d="M151.242,225.421c0.519-5.178,3.848-9.524,8.438-11.501l0.001-0.003l-3.388-11.755
				c-9.918,3.595-17.046,12.998-17.287,24.099L151.242,225.421z"/>
			<path style="fill:#B6B6EF;" d="M186.474,211.432l-9.746,7.305l-0.003,0.008c1.617,2.29,2.575,5.079,2.575,8.096
				c0,1.582-0.273,3.098-0.755,4.517l11.48,4.096c0.938-2.699,1.454-5.595,1.454-8.614
				C191.48,221.082,189.62,215.76,186.474,211.432z"/>
		</g>
		<g>
			<circle style="fill:#FFFFFF;" cx="341.645" cy="278.608" r="3.555"/>
			<circle style="fill:#FFFFFF;" cx="315.254" cy="163.355" r="3.555"/>
			<circle style="fill:#FFFFFF;" cx="433.416" cy="228.898" r="3.555"/>
			<circle style="fill:#FFFFFF;" cx="454.465" cy="392.355" r="3.555"/>
			<circle style="fill:#FFFFFF;" cx="49.262" cy="362.898" r="3.555"/>
			<circle style="fill:#FFFFFF;" cx="149.344" cy="281.987" r="3.555"/>
			<circle style="fill:#FFFFFF;" cx="422.474" cy="95.582" r="3.555"/>
			<circle style="fill:#FFFFFF;" cx="133.349" cy="84.789" r="2.415"/>
			<circle style="fill:#FFFFFF;" cx="449.428" cy="119.282" r="2.415"/>
			<circle style="fill:#FFFFFF;" cx="447.013" cy="86.629" r="2.415"/>
			<circle style="fill:#FFFFFF;" cx="171.096" cy="174.916" r="3.555"/>
			<circle style="fill:#FFFFFF;" cx="159.081" cy="78.194" r="3.555"/>
			<circle style="fill:#FFFFFF;" cx="45.707" cy="287.577" r="3.555"/>
		</g>
		<path style="fill:#FFFFFF;" d="M58.958,167.946h-3v-6h3V167.946z M58.958,157.946h-3v-6h3V157.946z M58.958,147.946h-3v-6h3
			V147.946z M58.958,137.946h-3v-6h3V137.946z M58.958,127.946h-3v-0.185c0-2.299,0.801-4.542,2.254-6.318l2.321,1.9
			c-1.016,1.241-1.576,2.81-1.576,4.418V127.946z M63.13,121.368l-1.207-2.746c1.268-0.557,2.618-0.84,4.013-0.84h2.491v3h-2.491
			C64.959,120.782,64.015,120.979,63.13,121.368z M88.427,120.782h-6v-3h6V120.782z M78.427,120.782h-6v-3h6V120.782z"/>
		<path style="fill:#FFFFFF;" d="M400.416,112.704l-3-0.024l0.049-6l3,0.024L400.416,112.704z M400.497,102.704l-3-0.024l0.048-6
			l3,0.024L400.497,102.704z M400.577,92.705l-3-0.024l0.049-6l3,0.024L400.577,92.705z M400.658,82.705l-3-0.024l0.049-6l3,0.024
			L400.658,82.705z M400.739,72.705l-3-0.023l0.022-2.835c0-0.97-0.123-1.853-0.364-2.702l2.885-0.821
			c0.318,1.117,0.479,2.275,0.479,3.444L400.739,72.705z M395.871,64.065c-1.041-1.397-2.44-2.482-4.047-3.139l1.135-2.777
			c2.111,0.863,3.95,2.289,5.318,4.123L395.871,64.065z M388.459,60.225l-0.243-0.003h-5.718v-3l6.039,0.004L388.459,60.225z
			 M378.498,60.222h-6v-3h6V60.222z M368.498,60.222h-6v-3h6V60.222z M358.498,60.222h-6v-3h6V60.222z M348.498,60.222h-6v-3h6
			V60.222z M338.498,60.222h-6v-3h6V60.222z M328.498,60.222h-6v-3h6V60.222z"/>
		<g>
			<g>
				<path style="fill:#E29B8D;" d="M235.708,257.894c-1.221-0.614-2.502-1.378-3.813-2.252c-0.09,6.379-1.253,13.709-5.442,18.134
					c-4.764,5.033,8.277,12.011,23.004,9.839c14.727-2.171,22.251-4.897,22.251-4.897s-8.169-6.36-8.522-22.178
					c-0.469,0.295-0.944,0.583-1.429,0.862C253.745,262.005,243.962,262.047,235.708,257.894z"/>
				<g>
					<g>
						<g>
							<g>
								<g>
									<g>
										<path style="fill:#EAB2A5;" d="M297.188,209.138c-1.434-4.954-6.867-2.433-6.867-2.433
											c1.564-16.948-0.955-64.836-47.887-61.446c-46.932,3.39-39.023,61.62-39.023,61.62c-6.019-2.955-9.534,3.567-5.275,14.428
											c3.884,9.907,12.488,8.168,12.488,8.168c5.242,12.069,13.792,21.175,21.271,26.166c1.311,0.875,2.592,1.638,3.813,2.252
											c8.254,4.154,18.037,4.112,26.049-0.492c0.485-0.279,0.961-0.567,1.429-0.862c15.253-9.603,21.747-27.412,21.747-27.412
											C295.711,231.909,298.622,214.092,297.188,209.138z"/>
									</g>
									<path style="fill:#BC6262;" d="M294.741,209.766c0.28,0.319-1.102-1.679-2.614-0.649c-1.512,1.031-2.162,4.739-1.269,5.975
										c0.893,1.237,1.993,3.985,0.069,5.222c-1.924,1.237-1.368,1.855-1.368,1.855s0.819-1.099,2.227-1.58s1.414-2.946,0-4.878
										S292.329,207.016,294.741,209.766z"/>
									<path style="fill:#BC6262;" d="M199.346,210.043c-0.244,0.347,0.915-1.788,2.529-0.926c1.614,0.862,2.66,4.478,1.905,5.804
										c-0.755,1.326-1.552,4.176,0.494,5.199c2.046,1.022,1.559,1.697,1.559,1.697s-0.932-1.005-2.384-1.331
										c-1.452-0.326-1.723-2.777-0.525-4.85C204.122,213.562,201.448,207.049,199.346,210.043z"/>
								</g>
							</g>
							<g>
								<path style="fill:#BC6262;" d="M241.929,225.183c0,0,0.779,3.318,4.993,3.318c4.855,0,5.863-3.318,5.863-3.318
									s-1.892,2.153-5.84,2.13C244.22,227.296,241.929,225.183,241.929,225.183z"/>
								<g>
									<ellipse style="fill:#E29F91;" cx="223.845" cy="223.825" rx="4.707" ry="3.696"/>
									<g>
										<path style="fill:#3A1751;" d="M219.977,204.612c0.423-1.261,1.348-2.159,2.412-2.581c0.944-0.374,2.369-0.81,4.356-1.101
											c6.194-0.909,7.505,2.34,6.131,3.565s-2.254-0.262-6.156,0.45C223.197,205.588,219.021,207.459,219.977,204.612z"/>
										<g>
											<circle style="fill:#3A1751;" cx="227.461" cy="212.971" r="4.109"/>
										</g>
									</g>
								</g>
								<g>
									<ellipse style="fill:#E29F91;" cx="270.584" cy="223.825" rx="4.707" ry="3.696"/>
									<g>
										<path style="fill:#3A1751;" d="M274.452,204.612c-0.423-1.261-1.348-2.159-2.412-2.581
											c-0.944-0.374-2.369-0.81-4.356-1.101c-6.194-0.909-7.505,2.34-6.131,3.565c1.374,1.225,2.254-0.262,6.156,0.45
											C271.232,205.588,275.408,207.459,274.452,204.612z"/>
										<g>
											<circle style="fill:#3A1751;" cx="266.968" cy="212.971" r="4.109"/>
										</g>
									</g>
								</g>
								<path style="fill:#3A1751;" d="M239.767,239.649c3.749,4.798,11.916,4.967,15.374-0.253
									c0.891-1.345-1.273-2.598-2.159-1.262c-2.637,3.98-8.755,3.192-11.448-0.253
									C240.546,236.615,238.788,238.395,239.767,239.649L239.767,239.649z"/>
							</g>
						</g>
						<g>
							<ellipse style="opacity:0.2;fill:#FEFFFF;" cx="226.282" cy="210.208" rx="15.032" ry="14.208"/>
							<ellipse style="opacity:0.2;fill:#FEFFFF;" cx="266.935" cy="210.02" rx="15.032" ry="14.208"/>
							<path style="fill:#616DC1;" d="M226.221,225.875c-8.899,0-16.138-7.069-16.138-15.759s7.24-15.759,16.138-15.759
								c8.899,0,16.138,7.069,16.138,15.759S235.119,225.875,226.221,225.875z M226.221,196.433
								c-7.754,0-14.062,6.138-14.062,13.683s6.308,13.683,14.062,13.683c7.754,0,14.062-6.138,14.062-13.683
								S233.974,196.433,226.221,196.433z"/>
							<path style="fill:#616DC1;" d="M266.935,225.875c-8.899,0-16.138-7.069-16.138-15.759c0-8.69,7.239-15.759,16.138-15.759
								c8.899,0,16.138,7.069,16.138,15.759C283.073,218.806,275.834,225.875,266.935,225.875z M266.935,196.434
								c-7.753,0-14.062,6.138-14.062,13.683s6.309,13.683,14.062,13.683c7.753,0,14.062-6.138,14.062-13.683
								S274.688,196.434,266.935,196.434z"/>
							<rect x="241.314" y="208.733" style="fill:#616DC1;" width="10.168" height="2.076"/>
						</g>
					</g>
					<path style="fill:#3A1751;" d="M291.182,166.816c-0.003-0.021-0.006-0.041-0.009-0.062c-0.513-4.749-1.378-9.092-2.836-11.666
						c-1.939-3.422-5.856-5.98-10.332-7.854c-0.466-1.655-1.352-3.111-2.714-4.281c-22.517-19.35-55.179,8.135-69.539,2.784
						c-4.743-1.767-9.948,0.903-10.992,5.856c-1.62,7.684-1.509,17.126,5.876,23.322c0.136,0.114,0.272,0.223,0.408,0.335
						c-0.093,0.936-0.165,1.889-0.21,2.863c-0.75,16.25,0.875,28.161,0.875,28.161c1.068,0.268,2.022,0.942,2.656,1.479
						c0.362,2.338,1.802,10.947,3.385,10.991c1.776,0.049,3.076-7.842,1.841-15.209c0.495-6.093,1.653-15.931,4.157-21.162
						c7.121,2.169,16.103,2.291,29.924,0.365c5.861-0.817,11.447-3.138,16.36-6.304c10.394-0.123,16.745,2.259,19.094,4.877
						c2.149,2.396,3.149,6.252,3.612,9.194c0.764,5.416,0.722,11.482,0.533,15.775c-0.276,1.919-0.393,3.828-0.378,5.588
						c-0.003,0.03-0.006,0.061-0.006,0.061l0.006-0.004c0.044,4.455,0.912,7.913,2.085,7.913c1.832,0,3.794-11.475,3.794-11.475
						c0.084-0.244,0.156-0.485,0.22-0.724l1.331-0.936C290.321,206.705,294.407,191.143,291.182,166.816z"/>
				</g>
			</g>
			<g>
				<g>
					<g>
						<path style="fill:#EAB2A5;" d="M361.36,336.99l2.064,2.817c0,0,4.336,2.728,12.702-0.888
							c8.366-3.615,15.88-20.328,17.866-26.459c1.986-6.13,1.55-8.845,2.806-13.519s-4.262-15.676-7.1-22.663
							c-2.838-6.988-7.998-6.104-10.173-5.647c-2.176,0.457-10.255,24.973-11.555,27.217
							C366.672,300.093,357.553,319.983,361.36,336.99z"/>
						<g>
							<g>
								<path style="fill:#3A1751;" d="M398.725,323.969l-46.076-10.012c-1.304-0.283-2.132-1.57-1.848-2.875l16.511-75.985
									c0.283-1.304,1.57-2.132,2.875-1.848l46.076,10.012c1.304,0.283,2.132,1.57,1.848,2.875l-16.511,75.985
									C401.316,323.424,400.029,324.252,398.725,323.969z"/>
								<path style="fill:#FFFFFF;" d="M399.137,313.369l-42.167-9.163c-0.646-0.14-1.057-0.778-0.916-1.425l14.011-64.481
									c0.14-0.647,0.778-1.057,1.425-0.916l42.167,9.163c0.647,0.14,1.057,0.778,0.916,1.425l-14.011,64.481
									C400.421,313.099,399.783,313.509,399.137,313.369z"/>
								
									<ellipse transform="matrix(0.2123 -0.9772 0.9772 0.2123 -9.7134 615.5314)" style="fill:#FFFFFF;" cx="376.966" cy="313.791" rx="2.516" ry="2.642"/>
							</g>
							<g>
								
									<rect x="368.197" y="252.048" transform="matrix(0.9772 0.2123 -0.2123 0.9772 64.1359 -76.5561)" style="fill:#B6B6EF;" width="40.601" height="16.556"/>
								
									<rect x="360.246" y="288.642" transform="matrix(0.9772 0.2123 -0.2123 0.9772 71.7248 -74.0332)" style="fill:#B6B6EF;" width="40.601" height="16.556"/>
								
									<rect x="365.353" y="271.888" transform="matrix(0.9772 0.2123 -0.2123 0.9772 66.7823 -75.661)" style="fill:#B6B6EF;" width="40.601" height="2.413"/>
								
									<rect x="370.657" y="247.478" transform="matrix(0.9772 0.2123 -0.2123 0.9772 61.7201 -77.3439)" style="fill:#B6B6EF;" width="40.601" height="2.413"/>
								
									<rect x="364.594" y="275.379" transform="matrix(0.9772 0.2123 -0.2123 0.9772 67.5063 -75.4203)" style="fill:#B6B6EF;" width="40.601" height="2.413"/>
								
									<rect x="363.836" y="278.871" transform="matrix(0.9772 0.2123 -0.2123 0.9772 68.2304 -75.1796)" style="fill:#B6B6EF;" width="40.601" height="2.413"/>
								
									<rect x="363.077" y="282.362" transform="matrix(0.9772 0.2123 -0.2123 0.9772 68.9544 -74.9389)" style="fill:#B6B6EF;" width="40.601" height="2.413"/>
							</g>
						</g>
						<path style="fill:#EAB2A5;" d="M358.272,336.603c0,0-2.594-16.961-2.767-19.531c-0.172-2.57,1.917-9.026,2.17-12.119
							c0.252-3.093,4.34-3.013,8.548-10.813c1.6-2.966,5.607,1.562,3.138,6.19c-2.469,4.628-4.882,7.774-2.958,10.41
							c1.924,2.636,5.204,5.054,6.337,10.763S367.029,347.593,358.272,336.603z"/>
					</g>
					<g>
						<path style="fill:#616DC1;" d="M297.791,348.99c0,0,19.233,54.69,23.547,65.474c4.314,10.785,12.238,9.616,18.602,8.025
							c11.863-2.966,37.399-77.584,39.826-84.324c0,0-17.832-1.825-23.224-6.679c0,0-13.979,25.011-15.432,25.82
							c-1.453,0.809-8.702-40.808-8.702-40.808S293.417,315.337,297.791,348.99z"/>
						<path style="fill:#415499;" d="M343.815,353.267c0,0-6.66,11.228-11.873,20.755c-5.213,9.526-5.752,18.334-5.752,18.334
							s-0.1-16.345,13.251-39.088c0,0,0.867,3.324,1.488,3.589C341.551,357.121,343.815,353.267,343.815,353.267z"/>
						<path style="fill:#4F5FAF;" d="M357.284,330.042l-4.042,6.211c0,0,0.337,4.179,10.245,7.077s14.509,1.711,14.509,1.711
							l2.342-8.249C380.339,336.792,365.843,336.571,357.284,330.042z"/>
					</g>
				</g>
				<g>
					<path style="fill:#616DC1;" d="M335.541,337.932c-1.618-7.334-2.75-44.792-19.867-52.434
						c-19.01-8.488-46.547-16.197-46.547-16.197c-3.307,9.885-14.036,13.22-18.935,14.247l0,0c0,0-20.617-0.078-23.784-13.363
						c0,0-30.265,6.248-45.701,14.43c-11.083,5.875-45.237,51.213-47.5,58.375c-1.676,5.305,5.414,18.304,9.76,26.375
						c-9.619,12.332-16.213,20.99-16.213,20.99s8.87,1.468,18.87-7.199c6.733-5.835,28.8-27.911,42.503-41.715
						c1.6,27.426,4.447,72.46,5.986,74.139c3.5,3.818,79.345,2.722,99.345,0c0,0,4.746-37.857,7.538-68.245
						c5.063,15.468,12.524,38.13,13.153,40.617C314.592,389.705,337.564,347.099,335.541,337.932z M248.591,285.364
						c0.023-0.025,0.049-0.051,0.071-0.076c0.015,0.021,0.034,0.043,0.049,0.064l-0.004,0L248.591,285.364z"/>
					<path style="fill:#4F5FAF;" d="M231.045,264.008l-5.573,6.416c0,0,4.545,15.074,20.137,15.074
						c15.952,0,22.053-11.095,23.518-16.197l-5.215-5.775c0,0-4.632,11.306-16.102,11.592
						C236.185,275.408,231.045,264.008,231.045,264.008z"/>
					<path style="fill:#415499;" d="M300.39,353.731c0,0,2.531-25.791,7.749-32.912C308.14,320.819,297.449,327.74,300.39,353.731z"
						/>
					<path style="fill:#415499;" d="M189.196,340.133c0,0-2.442-19.672-7.66-26.793C181.536,313.34,188.779,315.607,189.196,340.133
						z"/>
				</g>
				<g>
					<g>
						<path style="fill:#EAB2A5;" d="M113.796,287.313l-2.356,2.579c0,0-4.604,2.244-12.532-2.252
							c-7.928-4.496-13.597-21.921-14.911-28.23c-1.314-6.309-0.587-8.96-1.333-13.743s5.927-15.125,9.501-21.766
							c3.574-6.641,8.609-5.207,10.723-4.518c2.114,0.689,7.504,25.933,8.554,28.304
							C112.492,250.059,119.413,270.815,113.796,287.313z"/>
						<g>
							<g>
								<g>
									
										<rect x="69.846" y="163.747" transform="matrix(0.9845 -0.1756 0.1756 0.9845 -27.6759 16.457)" style="fill:#71A8C6;" width="18.625" height="1.75"/>
									
										<rect x="70.306" y="165.196" transform="matrix(0.9845 -0.1756 0.1756 0.9845 -28.3831 15.1115)" style="fill:#71A8C6;" width="1.792" height="5.5"/>
									
										<rect x="86.878" y="162.24" transform="matrix(0.9845 -0.1756 0.1756 0.9845 -27.6066 17.9754)" style="fill:#71A8C6;" width="1.792" height="5.5"/>
								</g>
								<path style="fill:#71A8C6;" d="M132.08,263.455l-68.41,12.202c-1.405,0.251-2.748-0.685-2.999-2.091l-16.727-93.781
									c-0.251-1.405,0.685-2.748,2.091-2.999l68.41-12.202c1.405-0.251,2.748,0.685,2.999,2.091l16.727,93.781
									C134.421,261.862,133.485,263.205,132.08,263.455z"/>
								<path style="fill:#FFFFFF;" d="M128.507,259.726l-62.775,11.196c-1.15,0.205-2.249-0.561-2.454-1.711l-15.306-85.814
									c-0.205-1.15,0.561-2.249,1.711-2.454l62.775-11.196c1.15-0.205,2.249,0.561,2.454,1.711l15.306,85.814
									C130.424,258.422,129.657,259.521,128.507,259.726z"/>
								
									<rect x="65.489" y="168.232" transform="matrix(0.9845 -0.1756 0.1756 0.9845 -29.2071 16.8721)" style="fill:#71A8C6;" width="30.5" height="10.5"/>
							</g>
							<g>
								<g>
									<g>
										
											<rect x="60.007" y="191.975" transform="matrix(0.9845 -0.1756 0.1756 0.9845 -34.9403 14.7281)" style="fill:#B6B6EF;" width="11.5" height="25.667"/>
										
											<rect x="74.316" y="195.47" transform="matrix(0.9845 -0.1756 0.1756 0.9845 -34.8049 17.2483)" style="fill:#B6B6EF;" width="11.5" height="19.667"/>
										
											<rect x="88.362" y="195.988" transform="matrix(0.9845 -0.1756 0.1756 0.9845 -34.4143 19.6993)" style="fill:#B6B6EF;" width="11.5" height="16.667"/>
										
											<rect x="102.744" y="200.31" transform="matrix(0.9845 -0.1756 0.1756 0.9845 -34.3498 22.2388)" style="fill:#B6B6EF;" width="11.5" height="9.833"/>
									</g>
								</g>
								
									<rect x="64.966" y="219.819" transform="matrix(0.9845 -0.1756 0.1756 0.9845 -39.0933 19.6894)" style="fill:#B6B6EF;" width="53.5" height="21.875"/>
								
									<rect x="68.665" y="245.617" transform="matrix(0.9845 -0.1756 0.1756 0.9845 -42.6767 20.661)" style="fill:#B6B6EF;" width="53.5" height="11.75"/>
							</g>
						</g>
						<path style="fill:#EAB2A5;" d="M116.908,287.262c0,0,4.407-16.583,4.855-19.119s-0.933-9.18-0.851-12.282
							s-3.99-3.464-7.333-11.671c-1.271-3.121-5.742,0.948-3.787,5.815c1.956,4.867,4.015,8.255,1.819,10.668
							c-2.196,2.413-5.719,4.464-7.46,10.017S107.018,297.243,116.908,287.262z"/>
					</g>
					<g>
						<path style="fill:#616DC1;" d="M95.573,285.365c0,0,13.135,79.625,19.135,94.125s20.41,17.5,41.076-9.089
							c23.248-29.912-1.076,0-1.076,0l-15.5-26.911c0,0-18.375-60.593-18.875-60.875S103.083,285.427,95.573,285.365z"/>
						<path style="fill:#4F5FAF;" d="M95.298,284.381l1.235,8.264c0,0,3.112,1.72,11.641,0.453
							c10.212-1.516,13.944-5.205,13.944-5.205l-2.501-8.229C119.617,279.664,107.403,284.778,95.298,284.381z"/>
						<path style="fill:#415499;" d="M136.992,336.199c0,0,5.132,24.416,4.965,35.416c0,0,1.341-10.458,0.004-20.458
							c-1.337-10-3.716-16.864-3.716-16.864L136.992,336.199z"/>
					</g>
				</g>
			</g>
		</g>
		<g>
			<polygon style="fill:#382549;" points="288.305,438.303 318.624,418.397 245.307,419.49 			"/>
			<g>
				<g>
					<polygon style="fill:#472F59;" points="288.305,438.303 154.93,438.303 144.225,354.927 276.725,354.927 					"/>
					<polygon style="fill:#472F59;" points="286.866,429.67 153.821,429.67 154.93,438.303 288.305,438.303 					"/>
					<ellipse style="fill:#B6B6EF;" cx="210.802" cy="392.126" rx="11.525" ry="8.667"/>
				</g>
				<polygon style="fill:#382549;" points="276.725,354.927 272.395,354.927 284.958,438.303 288.305,438.303 				"/>
			</g>
		</g>
	</g>
</g>
</svg>
